<?xml version="1.0" encoding="utf-8"?>

<!DOCTYPE svg PUBLIC "-//W3C//DTD SVG 1.1//EN" "http://www.w3.org/Graphics/SVG/1.1/DTD/svg11.dtd">
<svg version="1.1" id="Layer_1" xmlns="http://www.w3.org/2000/svg" xmlns:xlink="http://www.w3.org/1999/xlink" x="0px" y="0px"
	 viewBox="0 0 2560 1600" enable-background="new 0 0 2560 1600" xml:space="preserve">
<g>
	<path fill="none" stroke="#000000" stroke-width="3" stroke-miterlimit="10" d="M1158.965,14.293
		c2.006,1.107,3.383,2.739,5.45,3.628c3.282,1.411,6.814,4.282,9.97,6.066l12.775,7.226c2.044,1.98,5.068,3.974,7.478,5.531
		c4.389,2.833,9.203,5.024,13.131,8.564c4.397,3.965,7.089,7.834,10.193,12.891c1.288,2.645,3.222,5.447,4.763,7.94
		c1.051,1.698,1.787,4.217,3.828,5.174c1.984,0.931,2.78-7.075,2.536-8.431c-0.28-1.555-1.584-2.759-2.67-3.791
		c-1.841-1.747-3.643-2.792-5.208-4.907c-0.521-3.319-12.303-11.746-15.401-13.515c-3.034-1.732-5.728-4.388-8.768-6.111
		c-1.626-0.923-3.046-2.401-4.763-3.39c-2.036-1.172-5.41-2.119-7.033-3.747c-3.993-2.928-9.078-5.754-13.486-7.984
		c-3.98-2.013-7.686-4.456-11.707-6.245l-1.837-1.489l0.021,0.047c-0.632-1.469-1.649-3.002-3.119-4.858
		c-1.547-1.953-8.323-4.951-8.279-4.818c-21.297-3.737-47.895-1.839-69.17,1.071c-5.517,0.754-13.758,5.628-18.962,4.639
		c-19.06,3.556-36.052,12.299-55.727,15.343c-15.412,2.383-30.768,3.713-45.134,10.26c-14.2,9.779-29.719,13.123-40.95,27.03
		c-6.909,8.556-28.556,17.573-39.525,17.573c-8.985,0-20.907,1.624-28.933,5.531c-9.967,7.056-22.258,12.515-28.219,23.996
		c-4.685,9.021-10.644,17.018-16.825,24.8c-4.183,5.265-9.572,8.924-13.71,14.451c-10.927,11.975-23.538,18.601-39.347,21.767
		c-17.069,3.419-32.315,9.453-48.606,15.523c-9.887,3.29-22.152,2.135-30.178,8.207c-4.673,3.536-22.35,6.334-28.665,6.334
		c0.199,0.805,8.028,4.665,3.205,5.441c-5.183,0.835-2.982-4.371-5.965-4.371c-8.062,0-14.801,6.482-22.433,7.226
		c-8.987,1.411-21.776,5.889-29.733,10.259c-6.914,3.797-15.306,8.791-23.057,10.26c-4.039,2.491-11.275,4.69-15.579,5.709
		c-3.648,0.862,1.036,5.383-2.137,8.118c-1.358,1.169-5.408,0.861-5.519,3.39c-0.191,4.317,2.58,7.898-4.273,5.71
		c-6.455-2.06-2.214,5.722-3.828,9.277c-2.728,6.584-7.94,11.192-11.128,17.396c-2.688,5.233-3.947,9.859-5.252,15.701
		c-0.628,2.811,0.866,6.642-0.357,9.01c0,8.371,1.198,7.03-6.855,9.813c-3.857,1.333-4.087,6.11-4.273,9.455
		c-0.253,4.582,0.361,9.948-0.267,14.363c4.79,6.404,6.47,5.21,12.819,6.779c0,5.51-5.074,7.54-5.074,11.418
		c0,1.539,1.726,12.168,3.026,12.489c0.226,1.609,3.144,7.395,4.185,8.742c1.741,2.254,0.764,8.746,4.807,6.602
		c3.69-1.958,4.508-5.77,5.519,2.141c0.634,4.963-0.469,10.553,0.267,15.344c1.35,8.804-13.015,3.922-8.457,9.902
		c3.774,4.95,2.788,5.353-2.226,5.353c-3.137,0-3.708-3.578-5.786-5.263c-5.416-4.395-0.356-4.885-0.356-9.724
		c0-10.199,9.166-15.941,1.602-26.048c-4.229-5.649-2.25-12.125-5.697-17.396c-5.379-9.654-5.664-17.1-17.983-19.536
		c-8.337-1.649-20.685-5.752-21.276-16.147c-1.236-0.791-5.907-5.763-7.655-4.015c-1.318,1.318,0.424,5.409-2.048,6.245
		c0.819,3.315,8.153,4.469,2.404,6.334c-0.591,0.192-2.504,0.657-4.664,1.034l0,0l1.459,3.427c0.656,2.271-1.133,2.478-0.89,4.192
		c0.147,1.037,1.657,1.676,1.958,2.766c0.527,1.907,0,4.406,0,6.423c0,1.827,1.552,3.052,3.116,3.836
		c2.973,1.489,2.04,4.247,1.87,7.315c-0.107,1.934-0.252,4.137-0.534,6.066c-0.33,2.263,0.468,6.257-0.356,8.118
		c-0.45,2.854,1.34,4.805,1.958,7.404c0.48,2.023-0.271,4.282,1.336,5.888c1.393,1.393,2.276-0.799,2.937,1.784
		c0.792,3.092,0.009,7.445,1.602,10.17c0.52,0.888,1.835,0.258,2.315,1.338c1.75,3.939,0.075,9.28,0.89,13.292
		c1.102,5.418,4.405,6.214,2.582,12.31c0.122,1.606-0.216,2.502,1.157,3.479c1.651,1.177,2.404,0.932,2.404,3.301
		c0,4.913-1.94,11.747,3.027,15.076l5.266,4.749c-0.91,4.922-5.514,9.351-7.046,13.36c-1.727,4.518-7.063,5.656-7.567,11.954
		c-0.374,4.666,1.959,7.272,1.959,11.418c0,15.527-6.692,28.241-19.496,36.932c-4.295,2.915-8.072,6.305-12.73,8.832
		c-2.436,1.321-6.601,3.406-8.457,5.263c-0.854,0.854,1.982,6.302,2.315,7.672c1.229,5.044,0.891,10.211-0.267,15.165
		c-1.73,7.402-11.816,14.273,3.471,14.273c10.345,0,14.055,12.659,22.612,16.95c6.299,3.158,8.85,4.996,13.086,10.972
		c2.242,3.164,4.495,8.43,7.122,11.062c2.166,2.171,4.283,1.684,6.232,4.995c5.124,8.706,19.791,8.689,24.303,19.27
		c0.677,1.589,1.011,3.514,2.225,4.728c2.741,2.741,1.174,3.108-0.711,6.155c-1.895,3.063-3.055,10.698-0.534,13.649
		c1.171,1.372,3.142,1.575,3.027,3.658c-0.112,2.028-2.959,7.333-4.363,8.652c-5.095,4.789-12.018,13.538-12.018,20.786
		c0,4.437,9.014,21.839,7.211,24.175c-0.203,0.262-0.881-0.063-0.89,0.268c-0.292,10.519,9.045,7.969,16.647,10.17
		c5.642,1.633,8.575,8.291,6.409,13.738c-2.002,5.037-5.43,6.041-2.938,12.044c1.317,3.172-1.169,4.621-2.404,7.404
		c-1.965,4.429,3.22,13.123,7.122,15.165c1.215,0.636,2.649,0.34,3.904,1.072c0.573,1.724,1.558,3.363,1.719,5.173
		c0.172,1.945-1.959,2.516-1.959,4.549c0,3.913,1.056,5.379-2.225,8.029c-4.609,3.723-0.884,11.336-1.959,16.77
		c-0.841,4.254-2.667,6.612-2.937,11.329c-0.218,3.806-0.89,6.34-4.986,7.048c-5.308,0.919-1.22,8.695-8.279,9.01
		c-4.198,0.186-6.039,10.447-4.896,13.113c1.805,4.211,5.227,1.915,7.477,5.174c3.632,5.259,0.412,11.357,3.027,16.949
		c3.601,7.699,15.311,8.765,15.311,18.733c0,4.528,1.447,8.202,2.492,12.489c1.194,4.895-3.433,8.361-6.498,11.686
		c-2.274,2.467,0.221,5.958,0.89,9.189c0.72,3.471,3.339,5.71,6.944,5.71c7.453,0,8.707,7.807,15.045,9.367
		c8.119,1.998,20.137,1.676,17.715,13.917c-0.808,4.081-2.245,9.212-0.089,13.113c1.112,2.013,3.157,3.818,3.026,6.333
		c-0.127,2.437-2.766,4.528-1.335,6.958c2.933,4.98,9.539,8.579,10.771,14.809c0.424,2.149,0.718,3.916-0.979,5.621
		c-2.074,2.082,0.198,2.197,0.712,4.281c0.353,1.432-3.15,4.036-3.294,7.137c-0.208,4.483-1.331,11.269-3.205,15.344
		c-1.642,3.569,0.178,4.375,0.178,7.404c0,2.359-3.098,6.528-3.471,9.278c-0.155,1.137,1.477,3.097,0.877,4.282
		c-1.249,2.467-2.602,4.022-2.493,6.868c0.192,5.013-6.169,5.616-6.498,10.884c-0.308,4.92-3.508,7.693-4.184,12.935
		c-0.846,6.56-5.485,10.519-9.436,15.433c-3.074,3.822-6.214,6.705-3.712,11.987l0,0c2.282-2.2,5.323-3.515,10.033-2.353
		c4.388,1.081,9.574,3.851,14.155,3.123c3.548-0.565,9.594-7.741,5.163-8.831c-0.838-3.387-1.78-1.782-1.78-6.513
		c2.456-2.557,6.218-5.773,4.985-9.01c-1.681-4.414,1.065-6.731-4.807-5.263c-5.302,1.324-3.071-11.597,4.629-11.597
		c4.632,0,1.39,3.409,6.855,0.179c4.951-2.926,7.248,7.412,10.326,8.029c1.675,0.335,3.13-6.945,8.012-8.208
		c0.987-0.255,0.356,4.402,0.356,4.906c0,1.196,1.082,5.747,2.76,5.353c0.819-0.192,7.552-7.913,10.06-3.658
		c0.685,1.163-0.722,2.939,1.335,3.568c6.281,1.925,6.082,7.365,3.65,12.668c-1.628,3.548,1.448,15.363,3.738,18.199
		c4.096,5.073,7.82,3.212,12.019,6.333c1.722,1.28,2.719,13.13,3.026,15.79c0.962,8.346,5.679-10.557,11.039-5.174
		c10.557,5.985,19.971,7.504,31.336,10.437c6.974,1.8,12.786,12.029,20.564,7.226c12.278-7.584,13.539,0.757,17.003,12.043
		c3.371,10.987,22.968-8.148,22.968,6.78c1.568,3.604,1.938,4.723,4.273,8.118c1.753,2.548-7.108,1.642-1.068,8.475
		c1.71,1.934,1.882-2.551,4.985-2.052c2.518,0.405,1.801-4.974,2.137-6.333c4.346,0,3.62-6.731,10.238-5.353l6.854,1.427
		c2.33,0.484,1.886,8.651,7.033,4.995c4.276-3.036,4.896,0.383,4.896-7.404c0-8.878,10.526,0.678,11.395,0.089
		c6.143-4.162,3.845-1.273,8.813,1.784c2.382,1.467,13.827,12.761,13.709,14.897c-0.124,2.241-4.716,4.894-2.67,8.029
		c2.86,4.379-2.404,3.885-2.404,6.155c-0.179,0.058,1.185,1.427,0.445,2.498c-1.513,2.187-3.942,4.199-5.163,6.423
		c-3.787,6.901-5.932-2.361-8.368,3.212c-2.34,5.357-8.114,5.739-12.462,8.921c-1.754,3.517-7.122,3.186-7.122,8.207
		c0,3.115,2.09,7.311,5.341,4.996c3.582-2.551,6.755,18.223,10.683,8.921c0.621-1.471,11.186-0.145,9.258,2.141
		c-1.416,1.68,3.363,8.983,4.451,10.438c2.334,3.122,5.496,1.91,8.19,4.371c6.134,5.603,13.926,15.137,18.338,22.212
		c0.603,2.794,2.912,3.555,2.582,7.137c-0.838,9.08,10.196,20.09,17.715,24.086c13.191,7.013,9.496-1.673,18.783-6.602
		c4.964-2.635,2.968-10.892,8.903-13.381c6.235-2.615,0.113-5.066,8.101-3.747c4.221,0.697,0.946-2.788,3.649-3.836
		c3.904-1.514,11.454,0.414,12.108-4.728c0.834-6.548,7.744,1.298,7.744,4.014l0.09,0.09c8.023-2.027-2.748-7.971,1.068-12.846
		c6.509-8.318-12.091-12.109-14.066-15.523c3.545-8.118-11.883-20.591-11.306-22.926c3.53-14.27,8.324-8.115,18.695-4.728
		c3.277,1.071,6.656,3.372,9.97,4.639c6.709,2.563,10.398-0.721,15.846,5.085c5.107,5.445,3.725,2.003,9.614,1.249
		c3.598-0.46,3.284,1.151,4.095,3.925c1.529,5.226,6.079,7.899,10.326,10.973c3.276,2.372,11.271,2.98,12.286,5.71
		c0.11,4.143,0.368,6.822,1.246,10.972c0.187,0.887,1.811,2.088,2.581,1.25c1.739-1.889-0.644-5.59,3.206-4.729
		c4.265,0.955,5.458,0.277,7.388,4.818c3.108,7.314,4.629,0.858,5.608-3.122c4.893,0,9.874,2.133,14.867,0.892
		c3.701-0.921,6.393-2.56,9.792,0c4.402,3.318,5.594-2.263,9.525-3.479c6.214-1.924,3.159-6.468,4.184-10.615l7.033,4.549
		c1.433,0.926,4.998,0.914,3.383,3.39c-2.862,4.388-5.995,8.714-0.533,12.668c8.571,6.204,2.996,13.703-4.986,16.86
		c-4.87,1.926-10.176,4.292-15.489,4.817c-8.351,0.825,2.443,7.081,3.383,8.653c4.466,5.755,5.768,5.774,11.929,8.831
		c6.59,3.272,8.091,10.329,10.683,16.682c2.463,6.039,7.987,2.06,9.703,11.151c1.247,6.6,3.097,5.799,9.346,5.799
		c7.536,0,9.692-6.564,15.49-10.437c4.962-3.316,13.429,5.36,10.772-5.442c-3.836,0-8.552,1.374-5.342-5.084
		c3.177-6.388,8.658-0.853,12.908,2.587c4.433,3.589,1.19,12.578,9.347,12.578c1.59,5.225,2.875,3.017,4.006-0.268
		c0.187-0.545,5.606-1.09,6.409-0.892c1.299,5.256,1.344,6.022,6.765,7.761c4.566,1.466,5.632,1.539,6.944,6.155
		c3.153,11.101,9.52,5.041,15.757,2.498c8.681-3.538,15.841,13.005,26.083,9.455c1.972-0.684,0.313-4.974,1.602-5.799
		c1.583-1.01,5.966-0.224,6.053,2.141c0.143,3.895-3.697,4.66-1.691,9.189c0.902,1.927,3.143,2.753,3.027,5.085
		c-0.14,2.832-3.811,3.28-3.027,7.672c0.923,5.162,7.003,9.165,7.745,14.005c0.346,2.257,0.979,4.771,0.979,7.047
		c0,1.969-1.51,4.6-0.178,6.513c3.286,2.653,5.919,2.2,9.348,3.836c4.032,1.925,4.449,5.709,7.566,8.207
		c3.729,2.99,11.437-3.719,13.62,2.855c1.389,4.18,1.648,8.556,3.205,12.757c0.965,2.601,2.665,4.553,3.472,7.315
		c0.627,2.147-0.073,4.104,0.267,6.244c0.296,1.872,3.906,4.936,3.027,6.156c-1.293,1.797-4.277,2.858-2.759,5.887v1.784l0,0
		l15.044-0.714c7.445,2.188,4.806,3.834,5.075,10.17c0.167,3.941,3.752,7.105,2.67,11.329c-4.125,16.117,4.649,5.531,13.353,5.531
		c3.859,0,3.428,2.667,8.546,1.517c3.181-0.713,11.377,2.007,14.065-1.339c1.513-1.882-2.848-6.278,0.98-8.653
		c2.835-1.759,4.819-0.508,4.006-4.995c-0.771-4.256,4.229-5.984,2.226-9.991c-2.285-4.571,7.321-7.463,9.792-8.029
		c2.807-0.196,10.44,2.209,11.039-1.695c0.634-4.141,12.422-18.912,17.715-18.912c0,11.422,9.258,6.114,10.504,15.879
		c0.636,4.984,4.613,15.195,7.122,19.536c1.022,1.771,6.233,8.62,8.724,6.78c6.08-4.489,2.395,9.1,3.828,10.705
		c0.892,1,5.77,2.9,7.389,3.926c4.216,2.675,6.039-0.261,9.347-2.677c2.732-0.064,8.19-3.538,8.19,0.268
		c0,2.665-0.035,5.068,0.98,7.494c1.461,3.492-0.356,8.002,0.622,11.954c0.692,2.795-1.688,4.673-0.89,6.869
		c0.688,1.893,4.718,3.068,4.718,5.799c0,1.293-2.949,1.401-3.649,2.052c-2.205,2.054-0.574,5.78-2.849,6.691
		c-2.594,1.036-2.581,5.734-2.581,8.028c3.086,2.876,0.817,4.216,4.718,2.766c3.017-1.122,6.192,3.868,10.771,2.319
		c2.748-0.93,7.301-3.125,6.321-6.602c-1.142-4.046,12.786-2.125,14.778-1.516c3.368,1.029,5.873,7.236,9.169,9.367
		c0.794,0.512,6.333,5.772,6.766,2.944c0.723-4.711,5.697-9.77,4.896-14.005c-0.52-2.753-1.785-4.179-0.356-7.047
		c1.438-2.888,2.265-4.474,2.492-7.939c0.888-1.337,1.789-5.844,3.738-5.71c1.36,0.094,2.457,4.574,4.006,1.071
		c5.44-12.306,12.557-9.669,23.324-9.189c5.465,0.244,3.829-14.47,5.341-14.897c3.857-1.089,8.335,3.361,11.484,2.855
		c4.643-0.745,4.412-7.315,6.321-7.315c9.695,0,19.07,19.962,27.597,6.333c2.859-4.918-0.146-4.707,4.628-2.319
		c4.706,2.353,8.672-6.195,16.38-3.925c3.328,0.981,3.807,9.827,8.546,12.4c4.164,2.259,4.314,6.873,8.279,8.652
		c0.993,0.446,9.958-4.135,8.28,0c-2.287,5.635,0.836,2.605,3.56,4.193c1.722,1.004,3.007,3.904,4.54,5.441
		c1.688,1.694,5.154-1.338,7.3-1.694c6.884-1.147,3.916-4.686,7.566-10.081c2.324-3.437,4.19-5.604,8.814-4.55
		c2.663,0.608,5.806-0.646,5.964-3.657c0.066-1.276-8.434-3.945-9.97-7.583c-1.658-3.927,6.762-2.613,8.902-4.282l1.425-0.803
		c9.393-1.043,4.269,0.383,11.038,4.55c7.321,4.508,8.822,1.191,10.149-5.531c4.127-1.042,6.755-7.329,7.478-7.137
		c5.393,1.43,3.516,1.963,9.792,1.963c3.575,0,4.559,4.282,9.792,4.282c4.221,0,4.688,3.989,8.101,5.263
		c5.012,1.87,4.899,0.342,8.28-1.963c2.636-1.798,3.234,0.49,5.786,0.624c2.204,0.116,4.24-5.105,9.259-3.925
		c9.51,2.237,6.787-8.094,14.51,3.122c2.755,4.001,4.964,0.399,8.101,1.695c2.653,1.098,4.67,4.647,7.211,6.245
		c0.599,2.332,2.889,3.885,3.294,6.244c1.587,9.263,5.653-8.246,10.95-6.423c1.694,0.583,1.495,4.342,3.65,5.353
		c2.075,0.974,4.325-0.786,6.143,1.694c3.682,5.021,5.019,2.081,9.792,3.301c0.39,0.099,3.056,6.233,3.56,7.136
		c2.759,4.93,8.812,6.161,11.128,11.062c1.5,3.174,0.991,9.442-0.178,12.668c1.12,6.321,8.435,5.132,12.73,6.691
		c5.007,1.815,6.833,5.457,11.217,7.404c3.816,1.695,5.784-2.592,8.369-0.535c2.895,2.305-0.089,3.659-0.089,5.71
		c0,1.178,12.698,6.026,14.332,4.995c10.25-6.467,11.578,3.028,17.893,9.367c2.708,2.72,5.708-0.886,8.813,2.053
		c3.786,3.581,6.248-0.55,10.504,0.624l4.185,1.873l0,0c2.607,0.222,4.044-2.233,6.053-2.141c1.743,0.081,7.437,5.157,8.28,6.691
		c1.564,2.851,3.322,6.461,6.765,7.315c0.594,0.147,1.863-1.925,2.938-2.319c2.746-1.006,5,1.811,8.457,0.268
		c8.45-3.77,15.088,11.687,22.967,10.794c4.367-0.495-1.513-7.697-1.513-11.418c0-1.9-1.364-4.987-0.534-6.513
		c1.228-2.262,2.047-2.395,2.047-5.263c-3.793,0-2.903-4.016-4.362-3.925c-4.925,0.31-9.707-4.729-11.573-9.278
		c-0.991-2.415-7.803,2.469-5.786-4.103c0.319-1.043-0.165-3.165-1.157-3.747c-1.251-0.733-1.057,4.267-4.362,2.944
		c-4.001-1.603,1.156-7.702,2.315-10.616c1.205-3.033-6.801-4.389-1.602-10.259c5.787-1.979,3.401-25.877,2.938-31.222
		c-0.43-4.979-2.427-9.841-3.294-14.809c-1.018-5.835-3.174-12.948-4.986-18.734c-6.775,0-4.102-2.562-7.388-6.155
		c-3.248-3.552,0.921-2.832,2.76-5.887l10.148-16.86c2.51-4.17,6.972-7.505,8.724-12.043c0.974-2.525,0.814-9.18,3.917-9.813
		c7.417-1.511,4.994-5.73,9.259-10.348c1.395-1.51,4.246-0.781,5.519-3.212c1.638-3.123,2.234-6.356,4.273-9.634
		c3.826-6.451,7.755-2.8,7.39-11.418c-0.15-3.536,4.79-4.125,7.211-6.869c5.162-5.848,11.721-13.156,15.578-19.893
		c1.505-2.628,1.779-6.367,3.383-8.386c2.637-3.321,6.343-5.563,8.369-9.634c8.367-4.193,5.72-12.41,11.217-15.968
		c2.318-1.5,4.23-4.193,6.054-6.244c1.571-1.768,0.229-3.945,1.78-5.263l9.97-8.476c10.561-8.977,22.47-27.199,35.609-31.579
		c7.017-3.404,5.697-9.455,9.971-13.738c3.282-3.29,13.019-6.367,13.709-11.776c1.773-13.891,23.656-17.946,34.985-17.573
		c6.15,0.202,13.63,2.792,17.537-3.212c2.867-4.404,8.546-7.285,8.546-14.095c0.721-1.098,2.11-3.607,2.226-4.906
		c0.264-0.417,0.67-1.055,0.712-1.516c1.617-1.856,3.649-8.202,3.649-10.615c2.141-3.677,1.404-17.126,0.623-21.321l-0.796-8.262
		c-1.7-0.255-2.895-2.21-3.477-9.49c-0.716-8.963-8.326-8.644-6.677-20.607c0.513-3.73-4.482-2.339-8.012-1.605
		c-2.331,0.485-4.951-2.114-5.342-4.282c-1.292-7.172,1.608-11.748,8.546-13.56c4.163-1.087,6.574-0.063,10.238,0.803
		c4.358,1.031,12.577-0.656,11.395-5.799c-1.391-6.052-3.503-9.637-10.504-10.972c-6.224-1.186-8.333-5.034-12.284-9.278
		c-1.571-1.688-4.425-4.605-5.253-6.691c-1.929-4.853,0.798-7.999-4.54-10.705c-6.578-3.335-3.471-6.073-3.471-11.062
		c0-1.599-1.032-9.443-1.958-10.526c-2.207-2.582-6.12-0.164-7.033-4.996c-0.604-3.2-2.927-7.02-0.179-9.455
		c4.7-4.166-3.819-8.451-6.943-10.794c-3.379-2.534-15.14-11.105-15.401-14.809c-0.215-3.054-1.038-13.729-3.294-15.789
		c-6.497-5.936-11.092,2.084-13.442-10.17c-0.901-4.693,0.863-7.61,3.65-11.152c2.825-3.589,3.694-8.258,6.944-11.507
		c2.242-2.242-2.457-5.474-2.671-7.583c-0.078-0.768,0.744-2.46,0.268-3.123c-0.931-1.294-3.78,0.354-4.807-0.535
		c-3.124-2.707,6.556-8.672,3.471-10.17c-4.774-2.318-7.02-1.965-8.09-3.308l0,0c-0.641-0.806-0.808-2.154-0.991-5.255
		c-0.35-5.951-7.379-3.232-8.991-6.602c-1.429-2.989,1.042-6.521-0.534-9.189c-1.923-3.255-2.671-5.255-2.671-9.367
		c0-7.099-1.269-9.396,1.421-16.77c1.134-3.11,0.513-8.742-1.513-11.508c-2.978-4.063-5.509-4.486-0.445-9.813
		c5.178-5.448,15.937-6.168,14.778-15.254c-0.513-4.022-5.643-9.861-3.65-12.757c1.447-2.103-0.457-5.518,0.356-6.334
		c1.011-1.014,1.644-0.976,1.959-2.497c0.546-2.633-1.876-7.06-1.691-9.813c0.101-1.508,5.329-3.558,5.608-4.906
		c0.335-1.616-0.918-3.19-0.623-4.818c0.824-4.553,6.601-3.427,6.944-7.047c0.259-2.74-1.086-4.222-2.404-6.423
		c-2.28-3.808-3.383-5.467-3.383-10.081c0-4.799,1.286-8.95-0.445-13.649c-2.485-6.746-10.659-8.831-17.182-8.831
		c-1.749,0-6.21-5.92-8.542-6.512c-4.591-1.164-8.844-8.563-12.107-11.24c-2.095-1.719-8.39-5.227-10.95-5.887
		c-4.355-1.125-6.083,1.73-8.457-2.766c-0.736-1.394-5.155,1.008-6.498,1.16c-4.869,0.551-13.507-2.959-11.751-9.01
		c1.88-6.474,1.159-8.245-3.557-8.835l29.369-50.934l22.611-26.941l17.983-9.278c5.713-1.034,12.768-6.868,18.52-5.976
		c4.447,0.69,3.368,4.342,8.012,0.981c6.479-4.692,13.641-10.573,18.962-16.593c4.138-4.68,10.528-4.348,13.531-11.597
		l-0.178-27.922l-2.849-4.728c-0.834-5.727,0.357-11.995,0.357-17.752c0-3.729-2.25-11.524-0.534-14.541l0.268-0.089
		c0.35-0.527,1.324-0.822,1.691-1.339c0.819-0.126,1.131-0.477,1.78-0.892c0.828-3.143-2.314-3.657-2.314-6.245
		c0-4.26-0.849-12.271-2.759-15.878c-2.008-3.793-2.356-6.415-5.164-10.259c-4.421-6.048,2.601-14.451,4.541-19.715
		c4.122-11.188-4.43-8.455-8.635-15.701c0.203-2.452,0.322-6.078-0.089-8.475c-0.314-1.828-0.503-1.692-2.315-2.142
		c-2.042-0.508-4.544-2.062-5.075-4.192c-0.276-1.109-1.243-2.594-1.869-3.568c-0.972-1.51-0.665-3.31-1.336-4.818l-13.798-42.819
		l-9.703-27.654l-8.012-34.435c-0.159-6.118-1.929-12.826-3.116-18.822c-0.787-3.975-1.002-9.264-4.452-12.044
		c-3.313-2.67-2.136-2.86-2.136-6.958c0-5.529-0.44-11.164,0.356-16.593c0.429-2.927,0.033-3.622-1.869-5.531
		c-2.581-2.592-2.502-2.785-3.739-6.512l-1.425-22.302l0,0l-3.116-3.657c-1.508-1.702-3.438-6.419-1.869-8.564
		c1.607-2.2,4.23-3.329,5.697-5.976c2.871-5.176,1.743-15.692-0.089-21.054c-4.138-6.635-1.99-12.661-6.232-18.822
		c-4.437-6.443-9.582-3.975-12.196-12.579c-1.881-6.191-4.625-5.177-8.101-8.652c-1.919-1.919-1.799-4.679-5.164-5.71
		c-6.838-2.094-14.746,0.039-18.962-6.513c-3.367-4.635-3.319-4.281-8.813-4.281c-4.997,0-0.857-9.632-6.587-5.085
		c-5.062,4.015-3.481,1.294-8.902-0.446c-4.942-1.586-4.844-3.043-3.561-7.494c1.6-5.548-4.78-5.113-9.348-7.939
		c-1.689-1.046,2.137-4.474,2.137-5.263c0-3.137-19.915-4.452-20.653-5.799c-0.593-1.083,1.352-3.228-0.979-2.677
		c-1.87,0.443-3.358,1.071-5.342,1.071c-3.35,0-5.22,7.201-5.964,9.813l-4.185,3.3l0,0l-26.528,1.963l-44.065,3.39l-36.944,2.319
		c-7.069,0.444-14.089,0.205-20.742,1.16l-60.891,0.981c-10.556,0.17-36.677,5.786-44.6-1.16c-0.25-0.055-0.389-0.138-0.622-0.268
		c-0.311-0.025-0.427-0.052-0.712-0.179c-1.735,0-3.092-0.26-4.807,0.268c-8.555,0-15.254,0.77-24.036-0.357l-28.486-3.657
		l-45.045-5.085c-5.476,0-10.67-3.636-16.113-3.123c-5.129,0.483-8.922,3.585-13.977,1.339c-9.003-4-16.434-3.611-26.261-5.174
		c-6.569-1.044-13.284-3.912-19.811-4.4l-92.608-11.956l0,0c-0.133,0.513-0.256,1.086-0.372,1.726
		c-0.535,2.961-4.727,1.228-6.765,2.855c-6.238,4.978-3.866,10.752-7.389,14.005l-10.238,9.456
		c-4.852,4.482-9.879-0.143-16.647,4.639c-7.466,5.275-17.343,10.394-22.789,17.842c-2.099,2.873-5.84,12.935-6.321,12.935
		l-0.089-0.089c-0.03-0.122-0.199-0.424-0.268-0.446c0-13.923,1.903-11.035-13.976-13.381c-11.739-1.733-2.708-12.937-13.087-17.485
		c13.42-5,28.267-6.021,41.039-13.47c10.357-6.039,21.228-10.482,29.911-19.18c1.188-1.116,2.344-2.172,3.473-3.188l0,0
		l-3.818-1.129l0,0c-9.324,8.481-18.382,17.356-30.723,20.464l-49.586,12.489c-16.106,2.324-65.85,0.92-77.894-12.935
		c-5.177-5.954-11.299-5.384-16.825-10.348c-2.05-3.086-3.779-4.67-5.074-8.207c-0.918-2.505-0.62-4.39-1.069-6.869
		c-0.88-4.852-1.121-8.427-4.539-12.31c-1.248-1.419-5.965-4.985-5.965-7.047c0.878-0.217,2.188-0.089,3.116-0.089
		c1.998,1.164,8.6,3.868,6.765-1.338c-1.001-2.839-1.751-5.845-3.205-8.475c-3.027-5.477-7.373-10.287-9.703-16.325
		c-1.283-4.83-2.404-6.949-2.404-12.221c0-5.848,1.702-4.496-3.471-7.85c-8.598-5.574-8.601-8.317-6.232-17.574
		c0.712-2.784,1.01-4.857,0.732-6.781L1158.965,14.293L1158.965,14.293z"/>
	<g>
		<path fill="none" d="M1910.99,1598.947c1.426,0.764,2.876,1.185,4.371,1.016c0.869-0.099,1.328-0.466,1.512-1.016H1910.99z"/>
		<path fill="#FFFFFF" d="M2043.725,792.722c0-4.799,1.286-8.95-0.444-13.649c-2.485-6.746-10.659-8.831-17.182-8.831
			c-1.749,0-6.21-5.92-8.542-6.512c-4.591-1.165-8.844-8.563-12.107-11.24c-2.095-1.719-8.39-5.227-10.95-5.887
			c-4.355-1.125-6.083,1.73-8.457-2.766c-0.736-1.394-5.155,1.008-6.498,1.16c-4.869,0.551-13.507-2.959-11.751-9.01
			c1.88-6.474,1.159-8.245-3.557-8.835l29.369-50.934l22.611-26.941l17.983-9.278c5.713-1.034,12.768-6.868,18.52-5.976
			c4.447,0.69,3.368,4.342,8.012,0.981c6.479-4.692,13.641-10.573,18.962-16.593c4.138-4.68,10.528-4.348,13.531-11.597
			l-0.178-27.922l-2.849-4.728c-0.835-5.727,0.356-11.995,0.356-17.752c0-3.729-2.25-11.524-0.534-14.541l0.268-0.089
			c0.35-0.527,1.324-0.822,1.691-1.339c0.819-0.126,1.131-0.477,1.78-0.892c0.828-3.143-2.314-3.657-2.314-6.245
			c0-4.26-0.849-12.271-2.759-15.878c-2.008-3.793-2.356-6.415-5.164-10.259c-4.421-6.048,2.601-14.451,4.54-19.715
			c4.122-11.188-4.43-8.455-8.635-15.701c0.203-2.452,0.322-6.078-0.089-8.475c-0.313-1.828-0.503-1.692-2.314-2.142
			c-2.042-0.508-4.544-2.062-5.075-4.192c-0.276-1.109-1.243-2.594-1.869-3.568c-0.972-1.51-0.665-3.31-1.336-4.818l-13.798-42.819
			l-9.703-27.654l-8.012-34.435c-0.159-6.118-1.929-12.826-3.116-18.822c-0.787-3.975-1.002-9.264-4.452-12.044
			c-3.313-2.67-2.136-2.86-2.136-6.958c0-5.529-0.44-11.164,0.356-16.593c0.429-2.927,0.033-3.622-1.869-5.531
			c-2.582-2.592-2.502-2.785-3.739-6.512l-1.425-22.302l-3.116-3.657c-1.508-1.702-3.438-6.419-1.869-8.564
			c1.607-2.2,4.23-3.329,5.697-5.976c2.871-5.176,1.743-15.692-0.089-21.054c-4.138-6.635-1.99-12.661-6.232-18.822
			c-4.437-6.443-9.582-3.975-12.196-12.579c-1.881-6.19-4.625-5.177-8.101-8.652c-1.919-1.919-1.799-4.679-5.164-5.71
			c-6.838-2.094-14.746,0.039-18.962-6.513c-3.367-4.635-3.319-4.281-8.813-4.281c-4.997,0-0.857-9.632-6.587-5.085
			c-5.062,4.015-3.481,1.294-8.902-0.446c-4.942-1.586-4.844-3.043-3.561-7.494c1.6-5.548-4.78-5.113-9.348-7.939
			c-1.689-1.046,2.137-4.474,2.137-5.263c0-3.137-19.915-4.452-20.653-5.799c-0.593-1.083,1.352-3.228-0.979-2.677
			c-1.87,0.443-3.358,1.071-5.342,1.071c-3.35,0-5.22,7.201-5.964,9.813l-4.185,3.3l-26.528,1.963l-44.065,3.39l-36.944,2.319
			c-7.069,0.444-14.089,0.205-20.742,1.16l-60.891,0.981c-10.556,0.17-36.677,5.786-44.6-1.16c-0.25-0.055-0.389-0.138-0.622-0.268
			c-0.311-0.025-0.427-0.052-0.712-0.179c-1.735,0-3.092-0.26-4.807,0.268c-8.555,0-15.254,0.77-24.036-0.357l-28.486-3.657
			l-45.045-5.085c-5.476,0-10.67-3.636-16.113-3.122c-5.129,0.483-8.922,3.585-13.977,1.339c-9.003-4-16.434-3.611-26.261-5.174
			c-6.569-1.044-13.284-3.912-19.811-4.4l-92.608-11.956c-0.133,0.513-0.256,1.086-0.372,1.726
			c-0.535,2.961-4.727,1.228-6.765,2.855c-6.238,4.978-3.866,10.752-7.389,14.006l-10.238,9.455
			c-4.852,4.482-9.879-0.143-16.647,4.639c-7.466,5.275-17.343,10.394-22.789,17.842c-2.099,2.873-5.84,12.935-6.321,12.935
			l-0.089-0.089c-0.03-0.122-0.199-0.424-0.268-0.446c0-13.923,1.903-11.035-13.976-13.381
			c-11.739-1.733-2.708-12.937-13.087-17.485c13.42-5,28.267-6.021,41.039-13.47c10.357-6.039,21.228-10.482,29.911-19.18
			c1.188-1.116,2.344-2.172,3.473-3.188l-3.818-1.129c-9.324,8.481-18.382,17.355-30.723,20.464l-49.585,12.489
			c-16.106,2.324-65.85,0.92-77.894-12.935c-5.177-5.954-11.299-5.384-16.825-10.349c-2.05-3.086-3.779-4.67-5.074-8.207
			c-0.918-2.505-0.621-4.39-1.069-6.869c-0.88-4.852-1.122-8.427-4.54-12.31c-1.248-1.419-5.965-4.985-5.965-7.047
			c0.878-0.217,2.188-0.089,3.116-0.089c1.998,1.164,8.6,3.868,6.765-1.338c-1.001-2.839-1.752-5.845-3.205-8.475
			c-3.027-5.477-7.373-10.287-9.703-16.325c-1.283-4.83-2.404-6.949-2.404-12.221c0-5.848,1.702-4.496-3.472-7.85
			c-8.598-5.574-8.601-8.317-6.232-17.574c0.712-2.784,1.01-4.857,0.732-6.781l-0.001-0.002l-0.001-0.001
			c2.006,1.107,3.384,2.739,5.45,3.628c3.282,1.411,6.814,4.282,9.97,6.066l12.775,7.226c2.044,1.98,5.068,3.974,7.478,5.531
			c4.389,2.833,9.203,5.024,13.131,8.564c4.397,3.965,7.089,7.834,10.193,12.891c1.288,2.645,3.222,5.447,4.763,7.94
			c1.051,1.698,1.787,4.217,3.828,5.174c1.984,0.931,2.78-7.075,2.536-8.431c-0.28-1.555-1.584-2.759-2.67-3.791
			c-1.841-1.747-3.643-2.792-5.208-4.908c-0.521-3.319-12.303-11.746-15.401-13.515c-3.034-1.732-5.728-4.388-8.768-6.111
			c-1.626-0.923-3.046-2.401-4.763-3.39c-2.036-1.172-5.41-2.119-7.033-3.747c-3.993-2.928-9.078-5.754-13.486-7.984
			c-3.98-2.013-7.686-4.456-11.707-6.245l-1.837-1.489l0.021,0.047c-0.632-1.469-1.649-3.002-3.119-4.858
			c-1.547-1.953-8.323-4.951-8.279-4.818c-21.297-3.737-47.895-1.839-69.17,1.071c-5.516,0.754-13.758,5.628-18.962,4.639
			c-19.06,3.556-36.052,12.299-55.727,15.343c-15.412,2.383-30.768,3.713-45.134,10.26c-14.201,9.779-29.719,13.123-40.95,27.03
			c-6.909,8.556-28.556,17.573-39.525,17.573c-8.985,0-20.907,1.624-28.933,5.531c-9.967,7.056-22.258,12.515-28.219,23.996
			c-4.685,9.021-10.644,17.018-16.825,24.8c-4.183,5.265-9.572,8.924-13.71,14.451c-10.927,11.975-23.538,18.601-39.347,21.767
			c-17.069,3.419-32.315,9.453-48.606,15.523c-9.887,3.29-22.152,2.135-30.178,8.207c-4.673,3.536-22.35,6.334-28.665,6.334
			c0.199,0.805,8.028,4.665,3.205,5.441c-5.183,0.835-2.982-4.371-5.965-4.371c-8.062,0-14.801,6.482-22.433,7.226
			c-8.987,1.411-21.776,5.889-29.733,10.259c-6.914,3.797-15.306,8.791-23.057,10.26c-4.039,2.491-11.275,4.69-15.579,5.709
			c-3.648,0.862,1.036,5.383-2.137,8.118c-1.358,1.169-5.408,0.861-5.519,3.39c-0.191,4.317,2.58,7.898-4.273,5.71
			c-6.455-2.06-2.214,5.722-3.828,9.277c-2.728,6.584-7.94,11.192-11.128,17.396c-2.688,5.233-3.947,9.859-5.252,15.701
			c-0.628,2.811,0.866,6.642-0.357,9.01c0,8.371,1.198,7.03-6.855,9.813c-3.857,1.333-4.087,6.11-4.273,9.455
			c-0.253,4.582,0.361,9.948-0.267,14.363c4.79,6.404,6.47,5.21,12.819,6.779c0,5.51-5.074,7.54-5.074,11.418
			c0,1.539,1.726,12.168,3.026,12.489c0.226,1.609,3.144,7.395,4.185,8.742c1.741,2.254,0.764,8.746,4.807,6.602
			c3.689-1.958,4.508-5.77,5.519,2.141c0.634,4.963-0.469,10.553,0.267,15.344c1.35,8.804-13.015,3.922-8.457,9.902
			c3.774,4.95,2.788,5.353-2.226,5.353c-3.137,0-3.708-3.578-5.786-5.263c-5.416-4.395-0.356-4.885-0.356-9.724
			c0-10.199,9.166-15.941,1.602-26.048c-4.229-5.649-2.25-12.125-5.697-17.396c-5.379-9.654-5.664-17.1-17.983-19.536
			c-8.337-1.649-20.685-5.752-21.276-16.147c-1.236-0.791-5.907-5.763-7.655-4.015c-1.318,1.318,0.424,5.409-2.048,6.245
			c0.819,3.315,8.153,4.469,2.404,6.334c-0.591,0.192-2.504,0.657-4.664,1.034l1.459,3.427c0.656,2.271-1.133,2.478-0.89,4.192
			c0.147,1.037,1.657,1.676,1.958,2.766c0.527,1.907,0,4.406,0,6.423c0,1.827,1.552,3.052,3.116,3.836
			c2.973,1.489,2.04,4.247,1.87,7.315c-0.107,1.934-0.252,4.137-0.534,6.066c-0.33,2.263,0.469,6.257-0.356,8.118
			c-0.45,2.854,1.34,4.805,1.958,7.404c0.48,2.023-0.271,4.282,1.336,5.888c1.393,1.393,2.276-0.799,2.937,1.784
			c0.792,3.092,0.009,7.445,1.602,10.17c0.52,0.888,1.835,0.258,2.315,1.338c1.75,3.939,0.075,9.28,0.89,13.292
			c1.102,5.418,4.405,6.214,2.582,12.31c0.122,1.606-0.216,2.502,1.157,3.479c1.651,1.177,2.404,0.932,2.404,3.301
			c0,4.913-1.94,11.747,3.027,15.076l5.266,4.749c-0.91,4.922-5.514,9.351-7.046,13.36c-1.727,4.518-7.063,5.656-7.567,11.954
			c-0.374,4.666,1.959,7.272,1.959,11.418c0,15.527-6.693,28.241-19.496,36.932c-4.295,2.915-8.072,6.305-12.73,8.832
			c-2.436,1.321-6.601,3.406-8.457,5.263c-0.854,0.854,1.982,6.302,2.315,7.672c1.229,5.044,0.891,10.211-0.267,15.165
			c-1.73,7.402-11.816,14.273,3.471,14.273c10.345,0,14.055,12.659,22.612,16.95c6.299,3.158,8.85,4.996,13.086,10.972
			c2.242,3.164,4.495,8.43,7.122,11.062c2.166,2.171,4.283,1.684,6.232,4.995c5.124,8.706,19.791,8.689,24.303,19.27
			c0.677,1.589,1.011,3.514,2.225,4.728c2.741,2.741,1.174,3.108-0.711,6.155c-1.895,3.063-3.055,10.698-0.534,13.649
			c1.171,1.372,3.142,1.575,3.027,3.658c-0.112,2.028-2.959,7.333-4.363,8.652c-5.095,4.789-12.018,13.538-12.018,20.786
			c0,4.437,9.014,21.839,7.211,24.175c-0.203,0.262-0.882-0.063-0.89,0.268c-0.292,10.519,9.045,7.969,16.647,10.17
			c5.642,1.633,8.575,8.291,6.409,13.738c-2.002,5.037-5.43,6.041-2.938,12.044c1.317,3.172-1.169,4.621-2.404,7.404
			c-1.965,4.429,3.22,13.123,7.122,15.165c1.215,0.636,2.649,0.34,3.904,1.072c0.573,1.724,1.558,3.363,1.719,5.173
			c0.172,1.945-1.959,2.516-1.959,4.549c0,3.913,1.056,5.379-2.225,8.029c-0.334,0.27-0.612,0.565-0.864,0.873h1509.103
			C2044.126,797.201,2043.725,795.495,2043.725,792.722z"/>
		<path fill="#DC143C" d="M1913.847,1588.544c0-1.9-1.364-4.987-0.534-6.513c1.229-2.262,2.047-2.395,2.047-5.263
			c-3.793,0-2.903-4.016-4.362-3.925c-4.925,0.31-9.707-4.729-11.573-9.278c-0.991-2.415-7.803,2.469-5.786-4.103
			c0.319-1.043-0.166-3.165-1.157-3.747c-1.252-0.733-1.057,4.267-4.363,2.944c-4.001-1.603,1.156-7.702,2.315-10.616
			c1.205-3.033-6.801-4.389-1.602-10.259c5.787-1.979,3.401-25.877,2.938-31.222c-0.43-4.979-2.427-9.841-3.294-14.809
			c-1.018-5.835-3.174-12.948-4.986-18.734c-6.775,0-4.102-2.562-7.389-6.155c-3.248-3.552,0.921-2.832,2.76-5.887l10.148-16.86
			c2.51-4.17,6.972-7.505,8.724-12.042c0.974-2.525,0.814-9.18,3.917-9.813c7.417-1.511,4.994-5.73,9.259-10.349
			c1.395-1.51,4.246-0.781,5.519-3.211c1.638-3.123,2.234-6.356,4.273-9.634c3.826-6.451,7.755-2.8,7.389-11.418
			c-0.15-3.537,4.79-4.125,7.211-6.869c5.162-5.848,11.721-13.156,15.578-19.893c1.505-2.628,1.779-6.367,3.383-8.386
			c2.637-3.321,6.343-5.563,8.368-9.634c8.367-4.193,5.72-12.41,11.217-15.968c2.318-1.5,4.23-4.193,6.054-6.244
			c1.571-1.768,0.229-3.945,1.78-5.263l9.97-8.476c10.561-8.977,22.47-27.199,35.609-31.579c7.017-3.405,5.697-9.455,9.971-13.738
			c3.282-3.29,13.019-6.367,13.709-11.776c1.774-13.891,23.656-17.946,34.986-17.573c6.15,0.202,13.63,2.792,17.537-3.212
			c2.867-4.404,8.546-7.285,8.546-14.095c0.721-1.098,2.11-3.607,2.226-4.906c0.264-0.417,0.67-1.055,0.712-1.516
			c1.617-1.856,3.649-8.202,3.649-10.615c2.141-3.677,1.405-17.126,0.623-21.321l-0.795-8.262c-1.7-0.255-2.895-2.21-3.477-9.49
			c-0.716-8.963-8.326-8.644-6.677-20.607c0.513-3.73-4.482-2.34-8.012-1.605c-2.331,0.485-4.952-2.114-5.342-4.282
			c-1.292-7.172,1.608-11.748,8.546-13.56c4.163-1.087,6.574-0.063,10.238,0.803c4.358,1.031,12.577-0.656,11.395-5.799
			c-1.391-6.052-3.503-9.637-10.504-10.972c-6.224-1.187-8.333-5.034-12.284-9.278c-1.571-1.688-4.425-4.605-5.253-6.691
			c-1.929-4.853,0.797-7.999-4.54-10.705c-6.578-3.335-3.471-6.073-3.471-11.062c0-1.599-1.033-9.443-1.958-10.526
			c-2.207-2.582-6.12-0.165-7.033-4.996c-0.604-3.2-2.927-7.02-0.179-9.455c4.7-4.166-3.818-8.451-6.943-10.794
			c-3.379-2.534-15.14-11.105-15.401-14.809c-0.215-3.054-1.038-13.729-3.293-15.79c-6.498-5.936-11.092,2.084-13.442-10.17
			c-0.901-4.693,0.863-7.61,3.65-11.152c2.825-3.589,3.694-8.258,6.944-11.507c2.242-2.242-2.457-5.474-2.671-7.583
			c-0.077-0.768,0.744-2.46,0.268-3.122c-0.931-1.294-3.78,0.354-4.807-0.535c-3.124-2.707,6.556-8.672,3.471-10.17
			c-4.773-2.318-7.02-1.965-8.09-3.308c-0.641-0.806-0.808-2.154-0.991-5.255c-0.35-5.951-7.379-3.232-8.991-6.602
			c-1.429-2.989,1.042-6.521-0.534-9.189c-1.923-3.255-2.671-5.255-2.671-9.367c0-7.099-1.269-9.396,1.421-16.77
			c1.134-3.11,0.513-8.742-1.513-11.508c-2.978-4.063-5.509-4.486-0.446-9.813c5.178-5.448,15.937-6.168,14.778-15.254
			c-0.513-4.022-5.643-9.861-3.65-12.757c1.447-2.103-0.457-5.518,0.356-6.334c1.012-1.014,1.644-0.976,1.959-2.497
			c0.546-2.633-1.876-7.06-1.691-9.813c0.101-1.508,5.329-3.558,5.608-4.907c0.335-1.616-0.918-3.189-0.623-4.818
			c0.824-4.553,6.601-3.427,6.944-7.047c0.259-2.74-1.086-4.222-2.404-6.423c-0.91-1.52-1.629-2.697-2.169-3.856H535.836
			c-3.22,3.946-0.098,10.857-1.095,15.898c-0.841,4.254-2.667,6.612-2.937,11.329c-0.218,3.806-0.89,6.34-4.986,7.048
			c-5.308,0.919-1.22,8.695-8.279,9.01c-4.198,0.186-6.039,10.447-4.896,13.113c1.805,4.211,5.227,1.915,7.477,5.174
			c3.632,5.259,0.412,11.357,3.027,16.949c3.601,7.699,15.311,8.765,15.311,18.733c0,4.528,1.447,8.202,2.492,12.489
			c1.194,4.895-3.433,8.361-6.498,11.686c-2.274,2.467,0.221,5.958,0.89,9.189c0.72,3.471,3.339,5.71,6.944,5.71
			c7.453,0,8.707,7.807,15.045,9.367c8.119,1.998,20.137,1.676,17.715,13.917c-0.808,4.081-2.245,9.212-0.089,13.113
			c1.112,2.013,3.157,3.818,3.026,6.333c-0.127,2.437-2.766,4.528-1.335,6.958c2.933,4.98,9.539,8.579,10.771,14.809
			c0.424,2.149,0.718,3.916-0.979,5.621c-2.074,2.082,0.198,2.197,0.712,4.281c0.353,1.432-3.15,4.036-3.294,7.137
			c-0.208,4.483-1.331,11.269-3.205,15.344c-1.642,3.569,0.178,4.375,0.178,7.404c0,2.36-3.098,6.528-3.471,9.278
			c-0.155,1.137,1.477,3.097,0.877,4.282c-1.249,2.467-2.602,4.022-2.493,6.868c0.192,5.013-6.169,5.616-6.498,10.884
			c-0.308,4.92-3.508,7.693-4.184,12.935c-0.846,6.559-5.485,10.519-9.436,15.433c-3.074,3.822-6.214,6.705-3.712,11.987
			c2.282-2.2,5.323-3.515,10.033-2.353c4.388,1.081,9.574,3.851,14.155,3.123c3.548-0.565,9.594-7.741,5.163-8.831
			c-0.838-3.387-1.78-1.782-1.78-6.513c2.456-2.557,6.218-5.773,4.985-9.01c-1.681-4.414,1.065-6.731-4.807-5.263
			c-5.302,1.324-3.071-11.597,4.629-11.597c4.632,0,1.39,3.409,6.855,0.179c4.951-2.926,7.248,7.412,10.326,8.029
			c1.675,0.335,3.13-6.945,8.012-8.208c0.987-0.255,0.356,4.402,0.356,4.906c0,1.196,1.082,5.747,2.76,5.353
			c0.819-0.192,7.552-7.913,10.06-3.658c0.686,1.162-0.722,2.939,1.335,3.568c6.281,1.925,6.082,7.365,3.65,12.668
			c-1.628,3.548,1.448,15.363,3.738,18.199c4.096,5.073,7.82,3.212,12.019,6.333c1.722,1.28,2.719,13.13,3.026,15.79
			c0.962,8.347,5.679-10.557,11.039-5.174c10.557,5.985,19.971,7.504,31.336,10.437c6.974,1.8,12.786,12.029,20.564,7.226
			c12.278-7.584,13.539,0.757,17.003,12.043c3.371,10.987,22.968-8.148,22.968,6.78c1.568,3.604,1.938,4.723,4.273,8.118
			c1.753,2.548-7.108,1.642-1.068,8.475c1.71,1.934,1.882-2.551,4.985-2.052c2.518,0.405,1.801-4.974,2.137-6.333
			c4.346,0,3.62-6.731,10.238-5.353l6.854,1.427c2.33,0.484,1.886,8.651,7.033,4.995c4.276-3.036,4.896,0.383,4.896-7.404
			c0-8.878,10.526,0.678,11.395,0.089c6.143-4.162,3.845-1.273,8.813,1.784c2.382,1.467,13.827,12.761,13.709,14.897
			c-0.124,2.241-4.716,4.894-2.67,8.029c2.86,4.379-2.404,3.884-2.404,6.155c-0.179,0.058,1.185,1.427,0.445,2.498
			c-1.513,2.187-3.942,4.199-5.163,6.423c-3.787,6.901-5.932-2.361-8.368,3.211c-2.34,5.357-8.114,5.739-12.462,8.921
			c-1.754,3.517-7.122,3.186-7.122,8.207c0,3.115,2.09,7.311,5.341,4.995c3.582-2.551,6.755,18.223,10.683,8.921
			c0.621-1.471,11.186-0.145,9.258,2.141c-1.416,1.68,3.363,8.983,4.451,10.437c2.334,3.122,5.496,1.91,8.19,4.371
			c6.134,5.603,13.926,15.137,18.338,22.212c0.603,2.794,2.912,3.555,2.582,7.137c-0.838,9.08,10.196,20.09,17.715,24.086
			c13.191,7.013,9.496-1.673,18.783-6.602c4.964-2.635,2.968-10.892,8.903-13.381c6.235-2.615,0.113-5.066,8.101-3.747
			c4.221,0.697,0.946-2.788,3.649-3.836c3.904-1.514,11.454,0.414,12.108-4.728c0.834-6.548,7.744,1.298,7.744,4.014l0.09,0.09
			c8.023-2.027-2.748-7.971,1.068-12.846c6.509-8.318-12.091-12.109-14.066-15.523c3.545-8.118-11.883-20.591-11.306-22.927
			c3.53-14.27,8.324-8.115,18.695-4.728c3.277,1.071,6.656,3.372,9.97,4.639c6.709,2.563,10.398-0.721,15.846,5.085
			c5.107,5.445,3.725,2.003,9.614,1.249c3.598-0.46,3.284,1.151,4.095,3.925c1.529,5.226,6.079,7.899,10.326,10.973
			c3.276,2.372,11.271,2.98,12.286,5.71c0.11,4.143,0.368,6.822,1.246,10.972c0.187,0.887,1.811,2.088,2.581,1.25
			c1.739-1.889-0.644-5.59,3.206-4.729c4.265,0.955,5.458,0.277,7.388,4.818c3.108,7.314,4.629,0.858,5.608-3.123
			c4.893,0,9.874,2.133,14.867,0.892c3.701-0.921,6.393-2.56,9.792,0c4.402,3.318,5.594-2.263,9.525-3.479
			c6.214-1.924,3.159-6.468,4.184-10.615l7.033,4.549c1.433,0.926,4.998,0.914,3.383,3.39c-2.861,4.388-5.995,8.714-0.533,12.668
			c8.571,6.204,2.996,13.703-4.986,16.86c-4.87,1.926-10.177,4.292-15.489,4.817c-8.351,0.825,2.443,7.081,3.383,8.653
			c4.466,5.755,5.768,5.774,11.929,8.831c6.59,3.272,8.091,10.329,10.683,16.682c2.463,6.039,7.987,2.06,9.703,11.151
			c1.247,6.6,3.097,5.799,9.347,5.799c7.536,0,9.692-6.564,15.49-10.437c4.962-3.316,13.429,5.36,10.772-5.442
			c-3.836,0-8.552,1.374-5.342-5.084c3.177-6.388,8.658-0.853,12.908,2.587c4.433,3.589,1.19,12.578,9.347,12.578
			c1.59,5.225,2.875,3.017,4.006-0.268c0.188-0.545,5.606-1.09,6.41-0.892c1.299,5.257,1.344,6.022,6.765,7.761
			c4.566,1.466,5.632,1.539,6.944,6.155c3.153,11.101,9.52,5.041,15.757,2.498c8.681-3.538,15.841,13.005,26.083,9.455
			c1.972-0.684,0.313-4.974,1.602-5.799c1.583-1.011,5.966-0.224,6.053,2.141c0.143,3.895-3.697,4.66-1.691,9.189
			c0.902,1.927,3.143,2.753,3.027,5.085c-0.14,2.832-3.811,3.28-3.027,7.671c0.923,5.162,7.003,9.165,7.745,14.006
			c0.346,2.257,0.979,4.771,0.979,7.047c0,1.969-1.51,4.6-0.178,6.513c3.286,2.653,5.919,2.2,9.348,3.836
			c4.032,1.924,4.448,5.709,7.566,8.207c3.729,2.99,11.437-3.719,13.62,2.855c1.389,4.18,1.648,8.556,3.205,12.757
			c0.965,2.602,2.665,4.553,3.472,7.315c0.627,2.147-0.073,4.104,0.267,6.244c0.296,1.872,3.906,4.936,3.027,6.156
			c-1.293,1.797-4.277,2.858-2.759,5.887v1.784l15.044-0.714c7.445,2.188,4.806,3.834,5.075,10.17
			c0.167,3.941,3.752,7.105,2.67,11.329c-4.125,16.118,4.649,5.531,13.353,5.531c3.859,0,3.428,2.667,8.546,1.517
			c3.181-0.713,11.377,2.007,14.065-1.339c1.513-1.882-2.848-6.278,0.98-8.653c2.835-1.759,4.82-0.508,4.006-4.995
			c-0.771-4.256,4.229-5.984,2.226-9.991c-2.285-4.571,7.321-7.463,9.792-8.029c2.807-0.196,10.44,2.209,11.039-1.695
			c0.634-4.141,12.422-18.912,17.715-18.912c0,11.422,9.258,6.114,10.504,15.879c0.636,4.984,4.613,15.195,7.122,19.536
			c1.022,1.771,6.233,8.62,8.724,6.78c6.08-4.489,2.395,9.1,3.828,10.705c0.892,1,5.77,2.9,7.388,3.926
			c4.216,2.675,6.04-0.261,9.347-2.677c2.732-0.064,8.19-3.538,8.19,0.268c0,2.665-0.035,5.068,0.98,7.494
			c1.461,3.493-0.356,8.002,0.622,11.954c0.692,2.795-1.687,4.673-0.89,6.869c0.688,1.893,4.718,3.068,4.718,5.799
			c0,1.292-2.949,1.401-3.649,2.052c-2.205,2.054-0.574,5.78-2.849,6.691c-2.594,1.036-2.581,5.734-2.581,8.028
			c3.086,2.876,0.816,4.216,4.718,2.766c3.017-1.122,6.193,3.868,10.771,2.319c2.748-0.93,7.301-3.125,6.321-6.602
			c-1.142-4.046,12.786-2.125,14.778-1.516c3.368,1.029,5.873,7.236,9.169,9.367c0.795,0.512,6.333,5.772,6.766,2.944
			c0.723-4.711,5.697-9.77,4.896-14.006c-0.52-2.753-1.785-4.179-0.356-7.047c1.438-2.888,2.265-4.473,2.492-7.939
			c0.888-1.337,1.789-5.844,3.738-5.71c1.36,0.094,2.457,4.574,4.006,1.071c5.44-12.305,12.557-9.669,23.324-9.189
			c5.465,0.244,3.829-14.47,5.341-14.897c3.857-1.089,8.335,3.361,11.484,2.855c4.643-0.745,4.412-7.315,6.321-7.315
			c9.695,0,19.07,19.962,27.597,6.333c2.859-4.918-0.146-4.707,4.628-2.319c4.706,2.353,8.672-6.195,16.38-3.925
			c3.328,0.981,3.807,9.827,8.546,12.4c4.164,2.259,4.314,6.873,8.279,8.652c0.993,0.446,9.958-4.135,8.28,0
			c-2.287,5.635,0.836,2.605,3.561,4.193c1.722,1.004,3.007,3.904,4.54,5.441c1.688,1.694,5.154-1.338,7.3-1.694
			c6.884-1.147,3.916-4.686,7.566-10.081c2.324-3.437,4.19-5.604,8.814-4.55c2.663,0.608,5.806-0.646,5.964-3.657
			c0.066-1.276-8.434-3.945-9.97-7.583c-1.658-3.927,6.762-2.613,8.902-4.282l1.425-0.803c9.393-1.043,4.269,0.383,11.038,4.55
			c7.322,4.508,8.822,1.191,10.149-5.531c4.127-1.042,6.755-7.329,7.478-7.137c5.393,1.43,3.516,1.963,9.792,1.963
			c3.575,0,4.56,4.282,9.792,4.282c4.221,0,4.688,3.989,8.101,5.263c5.012,1.87,4.899,0.342,8.279-1.963
			c2.636-1.798,3.234,0.49,5.786,0.624c2.204,0.116,4.24-5.105,9.259-3.925c9.51,2.237,6.787-8.094,14.51,3.122
			c2.755,4.001,4.964,0.399,8.101,1.695c2.653,1.098,4.67,4.647,7.211,6.245c0.599,2.332,2.889,3.885,3.294,6.244
			c1.587,9.263,5.653-8.246,10.95-6.423c1.694,0.583,1.495,4.342,3.65,5.353c2.075,0.974,4.325-0.786,6.143,1.694
			c3.682,5.021,5.019,2.081,9.792,3.301c0.39,0.099,3.056,6.233,3.56,7.136c2.759,4.93,8.812,6.161,11.128,11.062
			c1.5,3.174,0.991,9.442-0.178,12.668c1.12,6.322,8.434,5.132,12.73,6.691c5.007,1.815,6.833,5.457,11.217,7.404
			c3.816,1.695,5.784-2.592,8.368-0.535c2.895,2.305-0.089,3.659-0.089,5.71c0,1.178,12.697,6.026,14.332,4.996
			c10.25-6.467,11.578,3.028,17.893,9.367c2.708,2.72,5.708-0.886,8.813,2.053c3.786,3.581,6.248-0.55,10.504,0.624l4.185,1.873
			c2.607,0.222,4.044-2.233,6.053-2.141c1.743,0.081,7.437,5.157,8.28,6.69c1.564,2.851,3.322,6.461,6.765,7.315
			c0.594,0.147,1.863-1.926,2.938-2.319c2.746-1.006,5,1.811,8.457,0.268c6.847-3.055,12.504,6.513,18.596,9.778h5.883
			C1917.615,1596.735,1913.847,1591.525,1913.847,1588.544z"/>
	</g>
</g>
</svg>
